# xmcd
#
# Track frame offsets:
#	150
#	21710
#	36049
#	53933
#	69797
#	85437
#	101330
#	118590
#	134463
#	148990
#	162862
#	176931
#	192451
#	211579
#	230475
#	256653
#
# Disc length: 3669 seconds
#
# Revision: 1
# Processed by: cddbd v1.5.2PL0 Copyright (c) Steve Scherf et al.
# Submitted via: audiograbber 1.83.01
#
DISCID=e60e5310
DTITLE=Various Artist - Deutsche Stars und Hits
DYEAR=1900
DGENRE=
TTITLE0=Christian Anders - Es fährt ein Zug nach Nirgendwo
TTITLE1=Bata illic - Michaela
TTITLE2=Ulli Martin - Monika
TTITLE3=Andy Borg - Adios Amor
TTITLE4=Bernd Clüver - Mexican Girl
TTITLE5=Karat - Über sieben Brücken
TTITLE6=Peter Orlof - Der kleine Prinz
TTITLE7=Eichblatt - Flugzeuge im Bauch
TTITLE8=Olivados - So bist Du
TTITLE9=Geier Sturzflug - Bruttosozialprodukt
TTITLE10=Jürgen Drews - Geil- Die wilden Buben 
TTITLE11=Tony Marshall - Hit Medley
TTITLE12=Mike Krüger - Der Nippel
TTITLE13=Gottlieb Wendehals - Polonäse Blankenese
TTITLE14=Vicky Leandros - Hit Medley
TTITLE15=Freddy Quinn - La Paloma
EXTD=
EXTT0=
EXTT1=
EXTT2=
EXTT3=
EXTT4=
EXTT5=
EXTT6=
EXTT7=
EXTT8=
EXTT9=
EXTT10=
EXTT11=
EXTT12=
EXTT13=
EXTT14=
EXTT15=
PLAYORDER=
